<svg width="48" height="48" viewBox="0 0 48 48" fill="none" xmlns="http://www.w3.org/2000/svg">
<path fill-rule="evenodd" clip-rule="evenodd" d="M14 14C14.0004 12.1079 14.5375 10.2548 15.5491 8.65585C16.5606 7.05688 18.005 5.77769 19.7145 4.96685C21.424 4.15602 23.3285 3.8468 25.2067 4.07512C27.085 4.30344 28.8599 5.05993 30.3253 6.25672C31.7908 7.45351 32.8867 9.0415 33.4857 10.8362C34.0846 12.631 34.1622 14.5588 33.7092 16.3959C33.2563 18.2329 32.2915 19.9038 30.9269 21.2144C29.5623 22.525 27.8538 23.4216 26 23.8V34C26 34.5304 25.7893 35.0391 25.4142 35.4142C25.0391 35.7893 24.5304 36 24 36C23.4696 36 22.9609 35.7893 22.5858 35.4142C22.2107 35.0391 22 34.5304 22 34V23.8C19.7413 23.3389 17.7112 22.1116 16.2534 20.3258C14.7956 18.54 13.9995 16.3053 14 14ZM18.978 32.2C19.0178 32.4598 19.006 32.7248 18.9433 32.98C18.8806 33.2353 18.7682 33.4756 18.6125 33.6873C18.4569 33.8991 18.261 34.0781 18.0361 34.2141C17.8113 34.3501 17.5618 34.4405 17.302 34.48C14.746 34.87 12.716 35.458 11.382 36.11C10.712 36.438 10.314 36.736 10.108 36.954L10.066 37C10.132 37.078 10.246 37.192 10.446 37.338C11.006 37.752 11.944 38.208 13.282 38.626C15.936 39.456 19.726 40 24 40C28.274 40 32.064 39.456 34.718 38.626C36.058 38.208 36.994 37.752 37.554 37.338C37.754 37.192 37.868 37.078 37.934 37L37.892 36.954C37.686 36.736 37.288 36.438 36.618 36.11C35.284 35.458 33.254 34.87 30.698 34.48C30.4353 34.444 30.1825 34.3561 29.9541 34.2214C29.7257 34.0868 29.5264 33.908 29.3677 33.6957C29.209 33.4833 29.0941 33.2414 29.0297 32.9842C28.9653 32.7271 28.9527 32.4596 28.9926 32.1975C29.0325 31.9354 29.1242 31.6839 29.2622 31.4575C29.4002 31.2311 29.5818 31.0344 29.7965 30.8789C30.0112 30.7234 30.2547 30.6121 30.5128 30.5515C30.7709 30.4909 31.0385 30.4822 31.3 30.526C34.076 30.946 36.544 31.62 38.378 32.518C39.292 32.966 40.146 33.518 40.794 34.202C41.454 34.896 42 35.842 42 37C42 38.622 40.952 39.8 39.932 40.554C38.872 41.338 37.466 41.958 35.912 42.444C32.772 43.424 28.564 44 24 44C19.436 44 15.226 43.424 12.09 42.444C10.534 41.958 9.13 41.338 8.07 40.554C7.048 39.8 6 38.622 6 37C6 35.84 6.546 34.896 7.206 34.2C7.856 33.516 8.708 32.966 9.622 32.52C11.456 31.62 13.926 30.948 16.698 30.526C16.9578 30.4862 17.2228 30.498 17.478 30.5607C17.7332 30.6234 17.9736 30.7358 18.1853 30.8915C18.3971 31.0471 18.5761 31.243 18.7121 31.4679C18.8481 31.6927 18.9385 31.9402 18.978 32.2Z" fill="#F5BF2C"/>
</svg>
