<svg width="24" height="14" viewBox="0 0 24 14" fill="none" xmlns="http://www.w3.org/2000/svg">
<path d="M11.5696 0.33064L1.05947 12.2111C0.884011 12.4093 0.786133 12.6727 0.786133 12.9465C0.786133 13.2204 0.884011 13.4838 1.05947 13.682L1.07134 13.6948C1.1564 13.7912 1.25878 13.868 1.37226 13.9205C1.48574 13.9729 1.60795 14 1.73144 14C1.85494 14 1.97714 13.9729 2.09062 13.9205C2.2041 13.868 2.30649 13.7912 2.39154 13.6948L12.2881 2.50719L22.1807 13.6948C22.2658 13.7912 22.3682 13.868 22.4816 13.9205C22.5951 13.9729 22.7173 14 22.8408 14C22.9643 14 23.0865 13.9729 23.2 13.9205C23.3135 13.868 23.4159 13.7912 23.5009 13.6948L23.5128 13.682C23.6883 13.4838 23.7861 13.2204 23.7861 12.9465C23.7861 12.6727 23.6883 12.4093 23.5128 12.2111L13.0026 0.33064C12.9102 0.226157 12.7991 0.142976 12.6759 0.0861413C12.5527 0.0293064 12.4201 0 12.2861 0C12.1521 0 12.0195 0.0293064 11.8964 0.0861413C11.7732 0.142976 11.662 0.226157 11.5696 0.33064Z" fill="black"/>
</svg>
