<svg width="48" height="48" viewBox="0 0 48 48" fill="none" xmlns="http://www.w3.org/2000/svg">
<path d="M26.4 5.3C25.7076 4.78071 24.8655 4.5 24 4.5C23.1345 4.5 22.2924 4.78071 21.6 5.3L7.6 15.8C7.10322 16.1726 6.7 16.6557 6.42229 17.2111C6.14458 17.7666 6 18.379 6 19V38C6 39.0609 6.42143 40.0783 7.17157 40.8284C7.92172 41.5786 8.93913 42 10 42H17.8C18.3835 42 18.9431 41.7682 19.3556 41.3556C19.7682 40.9431 20 40.3835 20 39.8V30C20 28.9391 20.4214 27.9217 21.1716 27.1716C21.9217 26.4214 22.9391 26 24 26C25.0609 26 26.0783 26.4214 26.8284 27.1716C27.5786 27.9217 28 28.9391 28 30V39.8C28 40.3835 28.2318 40.9431 28.6444 41.3556C29.0569 41.7682 29.6165 42 30.2 42H38C39.0609 42 40.0783 41.5786 40.8284 40.8284C41.5786 40.0783 42 39.0609 42 38V19C42 18.379 41.8554 17.7666 41.5777 17.2111C41.3 16.6557 40.8968 16.1726 40.4 15.8L26.4 5.3Z" fill="#F5BF2C"/>
</svg>
