<svg width="48" height="48" viewBox="0 0 48 48" fill="none" xmlns="http://www.w3.org/2000/svg">
<path d="M8.04997 29.7C7.51663 29.3 7.25863 28.7753 7.27596 28.126C7.2933 27.4767 7.56797 26.9513 8.09997 26.55C8.46663 26.2833 8.86663 26.15 9.29997 26.15C9.7333 26.15 10.1333 26.2833 10.5 26.55L24 37L37.5 26.55C37.8666 26.2833 38.2666 26.15 38.7 26.15C39.1333 26.15 39.5333 26.2833 39.9 26.55C40.4333 26.95 40.7086 27.4747 40.726 28.124C40.7433 28.7733 40.4846 29.2987 39.95 29.7L26.45 40.2C25.7166 40.7667 24.9 41.05 24 41.05C23.1 41.05 22.2833 40.7667 21.55 40.2L8.04997 29.7ZM21.55 30.1L10.05 21.15C9.01663 20.35 8.49996 19.3 8.49996 18C8.49996 16.7 9.01663 15.65 10.05 14.85L21.55 5.9C22.2833 5.33334 23.1 5.05 24 5.05C24.9 5.05 25.7166 5.33334 26.45 5.9L37.95 14.85C38.9833 15.65 39.5 16.7 39.5 18C39.5 19.3 38.9833 20.35 37.95 21.15L26.45 30.1C25.7166 30.6667 24.9 30.95 24 30.95C23.1 30.95 22.2833 30.6667 21.55 30.1Z" fill="#F5BF2C"/>
</svg>
