<svg width="24" height="14" viewBox="0 0 24 14" fill="none" xmlns="http://www.w3.org/2000/svg">
<path d="M12.7165 13.6694L23.2267 1.78894C23.4021 1.59071 23.5 1.32734 23.5 1.05347C23.5 0.779602 23.4021 0.51624 23.2267 0.318009L23.2148 0.305218C23.1297 0.208787 23.0274 0.132001 22.9139 0.0795297C22.8004 0.0270585 22.6782 -7.18454e-08 22.5547 -8.26417e-08C22.4312 -9.3438e-08 22.309 0.0270585 22.1955 0.0795296C22.082 0.132001 21.9796 0.208787 21.8946 0.305218L11.998 11.4928L2.10541 0.305216C2.02036 0.208785 1.91797 0.131999 1.80449 0.0795279C1.69101 0.0270567 1.56881 -1.91729e-06 1.44531 -1.92808e-06C1.32182 -1.93888e-06 1.19961 0.0270567 1.08613 0.0795278C0.972654 0.131999 0.870271 0.208785 0.785213 0.305216L0.773336 0.318007C0.597881 0.516238 0.500001 0.7796 0.500001 1.05347C0.500001 1.32734 0.59788 1.59071 0.773336 1.78894L11.2835 13.6694C11.3759 13.7738 11.4871 13.857 11.6102 13.9139C11.7334 13.9707 11.866 14 12 14C12.134 14 12.2666 13.9707 12.3898 13.9139C12.5129 13.857 12.6241 13.7738 12.7165 13.6694Z" fill="black"/>
</svg>
