<svg width="48" height="48" viewBox="0 0 48 48" fill="none" xmlns="http://www.w3.org/2000/svg">
<path d="M24.0001 4C20.2871 4 16.7261 5.475 14.1006 8.1005C11.4751 10.726 10.0001 14.287 10.0001 18V25.056C10.0004 25.3663 9.9285 25.6723 9.7901 25.95L6.3561 32.816C6.18836 33.1514 6.10915 33.5242 6.126 33.8989C6.14285 34.2735 6.25521 34.6377 6.45239 34.9567C6.64958 35.2757 6.92505 35.539 7.25264 35.7216C7.58023 35.9042 7.94906 36.0001 8.32411 36H39.6761C40.0512 36.0001 40.42 35.9042 40.7476 35.7216C41.0752 35.539 41.3506 35.2757 41.5478 34.9567C41.745 34.6377 41.8574 34.2735 41.8742 33.8989C41.8911 33.5242 41.8119 33.1514 41.6441 32.816L38.2121 25.95C38.073 25.6725 38.0004 25.3664 38.0001 25.056V18C38.0001 14.287 36.5251 10.726 33.8996 8.1005C31.2741 5.475 27.7131 4 24.0001 4ZM24.0001 42C22.7588 42.0007 21.5478 41.6163 20.5341 40.8999C19.5204 40.1835 18.7539 39.1703 18.3401 38H29.6601C29.2463 39.1703 28.4798 40.1835 27.4661 40.8999C26.4524 41.6163 25.2414 42.0007 24.0001 42Z" fill="#F5BF2C"/>
</svg>
