<svg width="183" height="195" viewBox="0 0 183 195" fill="none" xmlns="http://www.w3.org/2000/svg">
<path d="M20.2443 73.7091L36.1804 55.7168L27.7335 33.2059L49.8179 42.8298L68.5594 27.8785L66.2213 51.7389L86.3171 65.0243L62.836 70.1941L56.4197 93.3569L44.2582 72.6218L20.2443 73.7091Z" fill="#F5BF2C" stroke="#F5BF2C" stroke-width="4"/>
<path d="M18.1418 135.142C24.1582 143.605 32.8365 150.759 43.1418 156.348M176.642 135.142C171.43 142.703 164.968 148.938 157.642 153.943M43.1418 156.348V188.642L69.6418 166.426M43.1418 156.348C51.1538 160.693 60.1493 164.092 69.6418 166.426M69.6418 166.426C88.9669 171.178 110.352 171.514 129.695 166.426M129.695 166.426L157.642 188.642V153.943M129.695 166.426C139.756 163.78 149.264 159.666 157.642 153.943" stroke="black" stroke-width="12" stroke-linecap="round" stroke-linejoin="round"/>
<circle cx="96.6418" cy="106.642" r="37.5" stroke="black" stroke-width="12"/>
</svg>
