<svg width="99" height="106" viewBox="0 0 99 106" fill="none" xmlns="http://www.w3.org/2000/svg">
<path d="M10.8876 39.855L19.4582 30.1265L14.9153 17.9547L26.7926 23.1584L36.872 15.0741L35.6145 27.9756L46.4223 35.1591L33.7939 37.9545L30.3431 50.4787L23.8025 39.2671L10.8876 39.855Z" fill="#F5BF2C" stroke="#F5BF2C" stroke-width="4"/>
<path d="M9.75684 73.0722C12.9925 77.6485 17.6598 81.5165 23.2021 84.5384M94.9999 73.0722C92.1969 77.1604 88.7216 80.5319 84.7815 83.2379M23.2021 84.5384V102L37.4541 89.9879M23.2021 84.5384C27.511 86.8878 32.3489 88.7258 37.4541 89.9879M37.4541 89.9879C47.8473 92.5571 59.3487 92.7389 69.7514 89.9879M69.7514 89.9879L84.7815 102V83.2379M69.7514 89.9879C75.1621 88.5569 80.2757 86.3326 84.7815 83.2379" stroke="black" stroke-width="7" stroke-linecap="round" stroke-linejoin="round"/>
<path d="M51.9749 37.6412C62.9447 37.6412 71.8702 46.587 71.8704 57.6617C71.8704 68.7366 62.9447 77.6832 51.9749 77.6832C41.0051 77.6831 32.0803 68.7366 32.0803 57.6617C32.0805 46.587 41.0052 37.6414 51.9749 37.6412Z" stroke="black" stroke-width="7"/>
</svg>
